{
	"asset":{
		"generator":"Khronos glTF Blender I/O v3.6.28",
		"version":"2.0"
	},
	"scene":0,
	"scenes":[
		{
			"name":"Scene",
			"nodes":[
				0
			]
		}
	],
	"nodes":[
		{
			"mesh":0,
			"name":"Cube",
			"scale":[
				0.47248709201812744,
				0.47248709201812744,
				1.1610174179077148
			]
		}
	],
	"animations":[
		{
			"channels":[
				{
					"sampler":0,
					"target":{
						"node":0,
						"path":"translation"
					}
				},
				{
					"sampler":1,
					"target":{
						"node":0,
						"path":"rotation"
					}
				},
				{
					"sampler":2,
					"target":{
						"node":0,
						"path":"scale"
					}
				}
			],
			"name":"Cube|Cube|CubeAction",
			"samplers":[
				{
					"input":8,
					"interpolation":"STEP",
					"output":9
				},
				{
					"input":10,
					"interpolation":"LINEAR",
					"output":11
				},
				{
					"input":8,
					"interpolation":"STEP",
					"output":12
				}
			]
		}
	],
	"materials":[
		{
			"doubleSided":true,
			"name":"powerbank",
			"pbrMetallicRoughness":{}
		},
		{
			"doubleSided":true,
			"name":"glass",
			"pbrMetallicRoughness":{
				"baseColorFactor":[
					0.800000011920929,
					0.800000011920929,
					0.800000011920929,
					0.10000000149011612
				],
				"roughnessFactor":0
			}
		}
	],
	"meshes":[
		{
			"name":"Cube.001",
			"primitives":[
				{
					"attributes":{
						"POSITION":0,
						"NORMAL":1,
						"TEXCOORD_0":2
					},
					"indices":3,
					"material":0
				},
				{
					"attributes":{
						"POSITION":4,
						"NORMAL":5,
						"TEXCOORD_0":6
					},
					"indices":7,
					"material":1
				}
			]
		}
	],
	"accessors":[
		{
			"bufferView":0,
			"componentType":5126,
			"count":4619,
			"max":[
				1,
				1,
				1
			],
			"min":[
				-1,
				-1,
				-1.0000066757202148
			],
			"type":"VEC3"
		},
		{
			"bufferView":1,
			"componentType":5126,
			"count":4619,
			"type":"VEC3"
		},
		{
			"bufferView":2,
			"componentType":5126,
			"count":4619,
			"type":"VEC2"
		},
		{
			"bufferView":3,
			"componentType":5123,
			"count":24546,
			"type":"SCALAR"
		},
		{
			"bufferView":4,
			"componentType":5126,
			"count":24,
			"max":[
				-0.4140912592411041,
				0.3697338402271271,
				0.9494690895080566
			],
			"min":[
				-0.7229373455047607,
				0.060887306928634644,
				0.9494690895080566
			],
			"type":"VEC3"
		},
		{
			"bufferView":5,
			"componentType":5126,
			"count":24,
			"type":"VEC3"
		},
		{
			"bufferView":6,
			"componentType":5126,
			"count":24,
			"type":"VEC2"
		},
		{
			"bufferView":7,
			"componentType":5123,
			"count":66,
			"type":"SCALAR"
		},
		{
			"bufferView":8,
			"componentType":5126,
			"count":2,
			"max":[
				0.5416666666666666
			],
			"min":[
				0.041666666666666664
			],
			"type":"SCALAR"
		},
		{
			"bufferView":9,
			"componentType":5126,
			"count":2,
			"type":"VEC3"
		},
		{
			"bufferView":10,
			"componentType":5126,
			"count":13,
			"max":[
				0.5416666666666666
			],
			"min":[
				0.041666666666666664
			],
			"type":"SCALAR"
		},
		{
			"bufferView":11,
			"componentType":5126,
			"count":13,
			"type":"VEC4"
		},
		{
			"bufferView":12,
			"componentType":5126,
			"count":2,
			"type":"VEC3"
		}
	],
	"bufferViews":[
		{
			"buffer":0,
			"byteLength":55428,
			"byteOffset":0,
			"target":34962
		},
		{
			"buffer":0,
			"byteLength":55428,
			"byteOffset":55428,
			"target":34962
		},
		{
			"buffer":0,
			"byteLength":36952,
			"byteOffset":110856,
			"target":34962
		},
		{
			"buffer":0,
			"byteLength":49092,
			"byteOffset":147808,
			"target":34963
		},
		{
			"buffer":0,
			"byteLength":288,
			"byteOffset":196900,
			"target":34962
		},
		{
			"buffer":0,
			"byteLength":288,
			"byteOffset":197188,
			"target":34962
		},
		{
			"buffer":0,
			"byteLength":192,
			"byteOffset":197476,
			"target":34962
		},
		{
			"buffer":0,
			"byteLength":132,
			"byteOffset":197668,
			"target":34963
		},
		{
			"buffer":0,
			"byteLength":8,
			"byteOffset":197800
		},
		{
			"buffer":0,
			"byteLength":24,
			"byteOffset":197808
		},
		{
			"buffer":0,
			"byteLength":52,
			"byteOffset":197832
		},
		{
			"buffer":0,
			"byteLength":208,
			"byteOffset":197884
		},
		{
			"buffer":0,
			"byteLength":24,
			"byteOffset":198092
		}
	],
	"buffers":[
		{
			"byteLength":198116,
			"uri":"data:application/octet-stream;base64,"
		}
	]
}
